<svg width="268" height="80" viewBox="0 0 268 80" fill="none" xmlns="http://www.w3.org/2000/svg">
<path d="M22.405 42.3739C22.4885 42.3853 22.5733 42.3853 22.6575 42.3912H27.3912C27.4754 42.3853 27.5601 42.3853 27.6437 42.3739C27.8112 42.3508 27.9749 42.305 28.13 42.2377C28.4813 42.0854 28.7767 41.8282 28.9757 41.5015C29.1747 41.1748 29.2675 40.7946 29.2413 40.4131C29.2152 40.0316 29.0714 39.6675 28.8297 39.371C28.588 39.0744 28.2603 38.8598 27.8915 38.7566C27.8104 38.7338 27.7263 38.7223 27.644 38.705L27.3915 38.6877H22.6578C22.318 38.688 21.9847 38.7813 21.6943 38.9574C21.3671 39.1562 21.1096 39.4512 20.9571 39.802C20.8046 40.1527 20.7646 40.5421 20.8426 40.9164C20.9205 41.2908 21.1127 41.6319 21.3926 41.8929C21.6725 42.1539 22.0265 42.3219 22.4059 42.3739H22.405Z" fill="black"/>
<path d="M11.5991 27.5609C11.683 27.5724 11.7678 27.5724 11.8519 27.5779H16.5857C16.6698 27.5724 16.7543 27.5724 16.8381 27.5609C17.0056 27.5378 17.1691 27.492 17.3242 27.4247C17.6756 27.2724 17.9711 27.0153 18.1702 26.6885C18.3692 26.3618 18.4621 25.9815 18.4359 25.5999C18.4098 25.2184 18.2659 24.8542 18.0241 24.5576C17.7824 24.261 17.4545 24.0464 17.0856 23.9433C17.0046 23.9208 16.9204 23.909 16.8381 23.8921L16.5857 23.8748H11.8519C11.512 23.8747 11.1786 23.968 10.8882 24.1445C10.561 24.3432 10.3035 24.6382 10.151 24.989C9.99844 25.3398 9.95843 25.7291 10.0364 26.1035C10.1144 26.4778 10.3065 26.8189 10.5865 27.0799C10.8664 27.3409 11.2204 27.5089 11.5998 27.5609H11.5991Z" fill="black"/>
<path d="M15.7532 38.7566C15.6718 38.7338 15.588 38.7223 15.5057 38.705L15.2532 38.6877H12.6942C12.3543 38.688 12.021 38.7813 11.7304 38.9574C11.4033 39.1562 11.1457 39.4512 10.9932 39.802C10.8407 40.1527 10.8007 40.5421 10.8787 40.9164C10.9567 41.2908 11.1488 41.6319 11.4287 41.8929C11.7087 42.1539 12.0626 42.3219 12.4421 42.3739C12.5259 42.3853 12.6107 42.3853 12.6948 42.3912H15.2538C15.338 42.3853 15.4228 42.3853 15.5063 42.3739C15.6739 42.3508 15.8375 42.3049 15.9927 42.2377C16.3439 42.0853 16.6393 41.828 16.8382 41.5013C17.0371 41.1745 17.1298 40.7942 17.1036 40.4128C17.0773 40.0313 16.9334 39.6672 16.6916 39.3707C16.4498 39.0742 16.122 38.8596 15.7532 38.7566Z" fill="black"/>
<path d="M25.0102 52.4902C24.9292 52.4677 24.845 52.4559 24.7627 52.4389L24.5102 52.4216H21.9512C21.6114 52.4215 21.278 52.5148 20.9878 52.6913C20.6606 52.8901 20.4031 53.1851 20.2506 53.5359C20.0981 53.8866 20.058 54.276 20.136 54.6503C20.214 55.0247 20.4061 55.3658 20.6861 55.6268C20.966 55.8877 21.32 56.0558 21.6994 56.1078C21.7829 56.1192 21.8677 56.1192 21.9518 56.1248H24.5093C24.5935 56.1192 24.6782 56.1192 24.7618 56.1078C24.9294 56.0847 25.093 56.0389 25.2481 55.9716C25.5995 55.8193 25.895 55.5621 26.0941 55.2354C26.2932 54.9086 26.386 54.5284 26.3599 54.1468C26.3337 53.7652 26.1899 53.4011 25.9481 53.1045C25.7063 52.8079 25.3785 52.5933 25.0096 52.4902H25.0102Z" fill="black"/>
<path d="M69.9977 32.6236C69.9977 32.6085 69.9977 32.5927 69.9953 32.5785C69.9938 32.5327 69.99 32.4871 69.9838 32.4417C69.9398 32.1546 69.8104 31.8874 69.6125 31.6746C69.5414 31.5944 69.4591 31.5249 69.3681 31.4682C69.3468 31.4531 69.3248 31.4373 69.3025 31.4247L69.2756 31.4064L56.5406 24.0647C56.4756 24.0338 56.4128 23.9973 56.3457 23.972C56.2112 23.9192 56.0696 23.887 55.9255 23.8762C55.8606 23.8762 55.7956 23.8762 55.7309 23.8796L55.6814 23.8762H24.5083C24.1685 23.8761 23.8351 23.9694 23.5449 24.1459C23.2177 24.3447 22.9602 24.6397 22.8077 24.9905C22.6552 25.3412 22.6152 25.7305 22.6931 26.1049C22.7711 26.4793 22.9633 26.8204 23.2432 27.0814C23.5231 27.3423 23.8771 27.5104 24.2565 27.5624C24.34 27.5738 24.4248 27.5738 24.509 27.5794H33.1219L33.4313 27.6081C33.4932 27.6199 33.5581 27.631 33.62 27.6483C33.9889 27.7513 34.3167 27.9659 34.5585 28.2625C34.8003 28.5592 34.9441 28.9233 34.9703 29.3049C34.9964 29.6864 34.9036 30.0667 34.7045 30.3935C34.5055 30.7202 34.2099 30.9774 33.8586 31.1296C33.7034 31.1969 33.5398 31.2426 33.3722 31.2656C33.2887 31.277 33.2039 31.277 33.1197 31.2829H11.8519C11.512 31.2829 11.1787 31.376 10.8882 31.5522C10.561 31.751 10.3035 32.046 10.151 32.3968C9.99844 32.7476 9.95843 33.1369 10.0364 33.5113C10.1144 33.8856 10.3065 34.2267 10.5865 34.4877C10.8664 34.7487 11.2204 34.9167 11.5998 34.9687C11.6836 34.9802 11.7684 34.9802 11.8525 34.986H37.4568L37.7662 35.0148C37.8296 35.0265 37.8931 35.0373 37.9553 35.0546C38.324 35.1578 38.6517 35.3725 38.8933 35.6691C39.135 35.9657 39.2788 36.3297 39.3049 36.7112C39.3311 37.0927 39.2383 37.4729 39.0393 37.7996C38.8404 38.1264 38.545 38.3836 38.1938 38.536C38.0386 38.6032 37.875 38.649 37.7074 38.6722C37.6239 38.6836 37.5391 38.6836 37.455 38.6892H33.65C33.3101 38.6895 32.9768 38.7828 32.6863 38.9589C32.3591 39.1576 32.1016 39.4527 31.9491 39.8034C31.7965 40.1542 31.7565 40.5435 31.8345 40.9179C31.9125 41.2923 32.1046 41.6334 32.3846 41.8943C32.6645 42.1553 33.0185 42.3233 33.3979 42.3754C33.4817 42.3868 33.5662 42.3868 33.6506 42.3927H43.0374C43.4334 42.3927 43.8132 42.2356 44.0932 41.956C44.3732 41.6764 44.5305 41.2972 44.5305 40.9018V35.6434C44.5305 35.5943 44.5434 35.5459 44.5681 35.5033C44.5927 35.4607 44.6281 35.4254 44.6707 35.4008C44.7134 35.3762 44.7617 35.3632 44.811 35.3632C44.8602 35.3631 44.9086 35.376 44.9513 35.4006L51.5213 39.1897C52.3881 39.6895 53.1079 40.4083 53.6084 41.2739C54.1089 42.1395 54.3723 43.1213 54.3724 44.1208V47.4344C54.3723 47.9155 54.2455 48.3882 54.0046 48.8048C53.7636 49.2215 53.4171 49.5674 52.9998 49.808C52.5826 50.0485 52.1092 50.1752 51.6274 50.1752C51.1456 50.1751 50.6722 50.0485 50.2549 49.808L44.8613 46.6905C44.7697 46.6387 44.6901 46.5681 44.6278 46.4834C44.5654 46.3987 44.5218 46.3018 44.4996 46.199C44.4296 45.8637 44.2459 45.5627 43.9793 45.3471C43.7128 45.1314 43.3798 45.0143 43.0368 45.0155H19.5704C19.2306 45.0159 18.8974 45.1091 18.6069 45.2852C18.2798 45.4839 18.0222 45.779 17.8697 46.1297C17.7172 46.4805 17.6772 46.8698 17.7552 47.2442C17.8332 47.6186 18.0253 47.9597 18.3052 48.2206C18.5852 48.4816 18.9391 48.6496 19.3186 48.7017C19.4024 48.7131 19.4869 48.7131 19.571 48.719H35.4018L35.7112 48.7477C35.7746 48.7594 35.8381 48.7702 35.9003 48.7875C36.269 48.8908 36.5966 49.1055 36.8383 49.4021C37.0799 49.6987 37.2236 50.0628 37.2497 50.4443C37.2758 50.8258 37.183 51.206 36.9841 51.5327C36.7851 51.8594 36.4897 52.1165 36.1385 52.2689C35.9835 52.3362 35.8199 52.382 35.6524 52.4048C35.5686 52.4163 35.4838 52.4163 35.3997 52.4221H30.7272C30.3873 52.422 30.054 52.5153 29.7637 52.6918C29.4365 52.8906 29.179 53.1856 29.0265 53.5364C28.874 53.8871 28.834 54.2764 28.912 54.6508C28.9899 55.0252 29.1821 55.3663 29.462 55.6273C29.7419 55.8882 30.0959 56.0563 30.4753 56.1083C30.5589 56.1197 30.6436 56.1197 30.7278 56.1253H55.7269L55.7578 56.1238C55.7801 56.1238 55.8024 56.1253 55.8244 56.1253C55.859 56.1253 55.8937 56.1253 55.9283 56.1216C55.963 56.1179 56.0047 56.1142 56.0422 56.1083C56.147 56.092 56.2497 56.0643 56.3485 56.0258C56.3844 56.0119 56.419 55.9949 56.4534 55.9776L56.4673 55.9721C56.5773 55.9241 56.6821 55.865 56.7801 55.7957L69.2796 48.5908C69.339 48.55 69.4034 48.5138 69.4581 48.469C69.628 48.3337 69.7651 48.1619 69.8594 47.9665C69.9536 47.771 70.0026 47.5568 70.0027 47.3399V32.657C69.999 32.6459 69.9983 32.6347 69.9977 32.6236ZM56.3107 27.2649L65.2866 32.4404C65.3246 32.4623 65.3562 32.4938 65.3782 32.5318C65.4001 32.5698 65.4117 32.6128 65.4117 32.6567C65.4117 32.7005 65.4001 32.7436 65.3782 32.7816C65.3562 32.8195 65.3246 32.851 65.2866 32.8729L63.5255 33.8884C63.3774 33.9737 63.2094 34.0186 63.0384 34.0186C62.8674 34.0186 62.6994 33.9737 62.5512 33.8884L53.619 28.7388C53.5761 28.7141 53.5404 28.6786 53.5156 28.6358C53.4908 28.593 53.4778 28.5444 53.4778 28.4949C53.4778 28.4454 53.4908 28.3969 53.5156 28.354C53.5404 28.3112 53.5761 28.2757 53.619 28.251L55.3275 27.2661C55.4769 27.1799 55.6464 27.1344 55.8189 27.1342C55.9915 27.134 56.1611 27.179 56.3107 27.2649ZM55.3315 38.0488L46.399 32.8992C46.3561 32.8744 46.3205 32.8389 46.2958 32.7961C46.2711 32.7533 46.258 32.7047 46.258 32.6553C46.258 32.6059 46.2711 32.5573 46.2958 32.5145C46.3205 32.4717 46.3561 32.4361 46.399 32.4114L48.1077 31.4265C48.2574 31.3403 48.4271 31.2949 48.5998 31.2949C48.7726 31.2949 48.9423 31.3403 49.0919 31.4265L58.0668 36.6005C58.1048 36.6225 58.1363 36.654 58.1582 36.692C58.1801 36.7299 58.1917 36.7729 58.1917 36.8168C58.1917 36.8606 58.1801 36.9036 58.1582 36.9416C58.1363 36.9795 58.1048 37.011 58.0668 37.033L56.3058 38.0485C56.1578 38.134 55.9899 38.1793 55.8189 38.1796C55.6479 38.1799 55.4798 38.1353 55.3315 38.0503V38.0488ZM67.1074 46.1205C67.1074 46.2373 67.0767 46.352 67.0183 46.4532C66.9598 46.5543 66.8757 46.6383 66.7745 46.6967L58.2633 51.6044C58.162 51.6628 58.0471 51.6936 57.9302 51.6936C57.8132 51.6936 57.6983 51.6629 57.597 51.6045C57.4957 51.5461 57.4116 51.4621 57.3532 51.3609C57.2947 51.2598 57.2639 51.145 57.264 51.0282V41.2162C57.264 41.0995 57.2947 40.9848 57.3532 40.8837C57.4116 40.7825 57.4956 40.6985 57.5969 40.6401L59.8892 39.3188C59.8892 41.0207 59.8923 43.4455 59.8941 44.6605C59.8942 44.7375 59.9146 44.8132 59.9532 44.8799C59.9918 44.9466 60.0472 45.002 60.1139 45.0406C60.1807 45.0792 60.2564 45.0996 60.3335 45.0998C60.4107 45.1 60.4865 45.08 60.5535 45.0417L64.126 43.0099C64.2344 42.9482 64.3245 42.859 64.3872 42.7513C64.4498 42.6436 64.4828 42.5212 64.4828 42.3967V36.6706L66.1074 35.7343C66.2086 35.6758 66.3235 35.645 66.4404 35.645C66.5573 35.645 66.6722 35.6757 66.7735 35.7341C66.8748 35.7924 66.9588 35.8764 67.0173 35.9775C67.0757 36.0786 67.1065 36.1934 67.1064 36.3101L67.1074 46.1205Z" fill="url(#paint0_linear_6_3727)"/>
<path d="M91.4297 42.9375H94.3047L95.75 44.7969L97.1719 46.4531L99.8516 49.8125H96.6953L94.8516 47.5469L93.9063 46.2031L91.4297 42.9375ZM100.094 40.5C100.094 42.2448 99.763 43.7292 99.1016 44.9531C98.4453 46.1771 97.5495 47.112 96.4141 47.7578C95.2839 48.3984 94.013 48.7187 92.6016 48.7187C91.1797 48.7187 89.9036 48.3958 88.7734 47.75C87.6432 47.1042 86.75 46.1693 86.0938 44.9453C85.4375 43.7214 85.1094 42.2396 85.1094 40.5C85.1094 38.7552 85.4375 37.2708 86.0938 36.0469C86.75 34.8229 87.6432 33.8906 88.7734 33.25C89.9036 32.6042 91.1797 32.2812 92.6016 32.2812C94.013 32.2812 95.2839 32.6042 96.4141 33.25C97.5495 33.8906 98.4453 34.8229 99.1016 36.0469C99.763 37.2708 100.094 38.7552 100.094 40.5ZM96.6641 40.5C96.6641 39.3698 96.4948 38.4167 96.1562 37.6406C95.8229 36.8646 95.3516 36.276 94.7422 35.875C94.1328 35.474 93.4193 35.2734 92.6016 35.2734C91.7839 35.2734 91.0703 35.474 90.4609 35.875C89.8516 36.276 89.3776 36.8646 89.0391 37.6406C88.7057 38.4167 88.5391 39.3698 88.5391 40.5C88.5391 41.6302 88.7057 42.5833 89.0391 43.3594C89.3776 44.1354 89.8516 44.724 90.4609 45.125C91.0703 45.526 91.7839 45.7266 92.6016 45.7266C93.4193 45.7266 94.1328 45.526 94.7422 45.125C95.3516 44.724 95.8229 44.1354 96.1562 43.3594C96.4948 42.5833 96.6641 41.6302 96.6641 40.5ZM110.232 43.3906V36.5H113.561V48.5H110.365V46.3203H110.24C109.969 47.0234 109.519 47.5885 108.889 48.0156C108.264 48.4427 107.501 48.6563 106.6 48.6563C105.798 48.6563 105.092 48.474 104.482 48.1094C103.873 47.7448 103.396 47.2266 103.053 46.5547C102.714 45.8828 102.542 45.0781 102.537 44.1406V36.5H105.865V43.5469C105.87 44.2552 106.061 44.8151 106.436 45.2266C106.811 45.638 107.313 45.8437 107.943 45.8437C108.344 45.8437 108.719 45.7526 109.068 45.5703C109.417 45.3828 109.699 45.1068 109.912 44.7422C110.131 44.3776 110.238 43.9271 110.232 43.3906ZM116.223 48.5V36.5H119.551V48.5H116.223ZM117.895 34.9531C117.4 34.9531 116.975 34.7891 116.621 34.4609C116.272 34.1276 116.098 33.7292 116.098 33.2656C116.098 32.8073 116.272 32.4141 116.621 32.0859C116.975 31.7526 117.4 31.5859 117.895 31.5859C118.389 31.5859 118.811 31.7526 119.16 32.0859C119.514 32.4141 119.691 32.8073 119.691 33.2656C119.691 33.7292 119.514 34.1276 119.16 34.4609C118.811 34.7891 118.389 34.9531 117.895 34.9531ZM127.639 48.7344C126.41 48.7344 125.352 48.474 124.467 47.9531C123.587 47.4271 122.91 46.6979 122.436 45.7656C121.967 44.8333 121.732 43.7604 121.732 42.5469C121.732 41.3177 121.969 40.2396 122.443 39.3125C122.923 38.3802 123.602 37.6536 124.482 37.1328C125.363 36.6068 126.41 36.3438 127.623 36.3438C128.67 36.3438 129.587 36.5339 130.373 36.9141C131.16 37.2943 131.782 37.8281 132.24 38.5156C132.699 39.2031 132.951 40.0104 132.998 40.9375H129.857C129.769 40.3385 129.535 39.8568 129.154 39.4922C128.779 39.1224 128.287 38.9375 127.678 38.9375C127.162 38.9375 126.712 39.0781 126.326 39.3594C125.946 39.6354 125.649 40.0391 125.436 40.5703C125.222 41.1016 125.115 41.7448 125.115 42.5C125.115 43.2656 125.219 43.9167 125.428 44.4531C125.641 44.9896 125.941 45.3984 126.326 45.6797C126.712 45.9609 127.162 46.1016 127.678 46.1016C128.058 46.1016 128.399 46.0234 128.701 45.8672C129.008 45.7109 129.261 45.4844 129.459 45.1875C129.662 44.8854 129.795 44.5234 129.857 44.1016H132.998C132.946 45.0182 132.696 45.8255 132.248 46.5234C131.805 47.2161 131.193 47.7578 130.412 48.1484C129.631 48.5391 128.706 48.7344 127.639 48.7344ZM138.145 45.0469L138.152 41.0547H138.637L142.48 36.5H146.301L141.137 42.5313H140.348L138.145 45.0469ZM135.129 48.5V32.5H138.457V48.5H135.129ZM142.629 48.5L139.098 43.2734L141.316 40.9219L146.527 48.5H142.629ZM161.768 37.1016C161.705 36.4714 161.437 35.9818 160.963 35.6328C160.489 35.2839 159.846 35.1094 159.033 35.1094C158.481 35.1094 158.015 35.1875 157.635 35.3437C157.255 35.4948 156.963 35.7057 156.76 35.9766C156.562 36.2474 156.463 36.5547 156.463 36.8984C156.452 37.1849 156.512 37.4349 156.643 37.6484C156.778 37.862 156.963 38.0469 157.197 38.2031C157.432 38.3542 157.702 38.487 158.01 38.6016C158.317 38.7109 158.645 38.8047 158.994 38.8828L160.432 39.2266C161.13 39.3828 161.77 39.5911 162.354 39.8516C162.937 40.112 163.442 40.4323 163.869 40.8125C164.296 41.1927 164.627 41.6406 164.861 42.1562C165.101 42.6719 165.223 43.263 165.229 43.9297C165.223 44.9089 164.973 45.7578 164.479 46.4766C163.989 47.1901 163.281 47.7448 162.354 48.1406C161.432 48.5312 160.32 48.7266 159.018 48.7266C157.726 48.7266 156.601 48.5286 155.643 48.1328C154.689 47.737 153.945 47.151 153.408 46.375C152.877 45.5937 152.598 44.6276 152.572 43.4766H155.846C155.882 44.013 156.036 44.4609 156.307 44.8203C156.583 45.1745 156.95 45.4427 157.408 45.625C157.872 45.8021 158.395 45.8906 158.979 45.8906C159.551 45.8906 160.049 45.8073 160.471 45.6406C160.898 45.474 161.229 45.2422 161.463 44.9453C161.697 44.6484 161.814 44.3073 161.814 43.9219C161.814 43.5625 161.708 43.2604 161.494 43.0156C161.286 42.7708 160.979 42.5625 160.572 42.3906C160.171 42.2187 159.679 42.0625 159.096 41.9219L157.354 41.4844C156.005 41.1562 154.939 40.6432 154.158 39.9453C153.377 39.2474 152.989 38.3073 152.994 37.125C152.989 36.1562 153.247 35.3099 153.768 34.5859C154.294 33.862 155.015 33.2969 155.932 32.8906C156.848 32.4844 157.89 32.2812 159.057 32.2812C160.244 32.2812 161.281 32.4844 162.166 32.8906C163.057 33.2969 163.749 33.862 164.244 34.5859C164.739 35.3099 164.994 36.1484 165.01 37.1016H161.768ZM170.77 41.5625V48.5H167.441V32.5H170.676V38.6172H170.816C171.087 37.9089 171.525 37.3542 172.129 36.9531C172.733 36.5469 173.491 36.3438 174.402 36.3438C175.236 36.3438 175.962 36.526 176.582 36.8906C177.207 37.25 177.691 37.7682 178.035 38.4453C178.384 39.1172 178.556 39.9219 178.551 40.8594V48.5H175.223V41.4531C175.228 40.7135 175.04 40.138 174.66 39.7266C174.285 39.3151 173.759 39.1094 173.082 39.1094C172.629 39.1094 172.228 39.2057 171.879 39.3984C171.535 39.5911 171.264 39.8724 171.066 40.2422C170.874 40.6068 170.775 41.0469 170.77 41.5625ZM181.17 48.5V36.5H184.498V48.5H181.17ZM182.842 34.9531C182.347 34.9531 181.923 34.7891 181.568 34.4609C181.219 34.1276 181.045 33.7292 181.045 33.2656C181.045 32.8073 181.219 32.4141 181.568 32.0859C181.923 31.7526 182.347 31.5859 182.842 31.5859C183.337 31.5859 183.758 31.7526 184.107 32.0859C184.462 32.4141 184.639 32.8073 184.639 33.2656C184.639 33.7292 184.462 34.1276 184.107 34.4609C183.758 34.7891 183.337 34.9531 182.842 34.9531ZM187.164 53V36.5H190.445V38.5156H190.594C190.74 38.1927 190.951 37.8646 191.227 37.5312C191.508 37.1927 191.872 36.9115 192.32 36.6875C192.773 36.4583 193.336 36.3438 194.008 36.3438C194.883 36.3438 195.69 36.5729 196.43 37.0313C197.169 37.4844 197.76 38.1693 198.203 39.0859C198.646 39.9974 198.867 41.1406 198.867 42.5156C198.867 43.8542 198.651 44.9844 198.219 45.9062C197.792 46.8229 197.208 47.5182 196.469 47.9922C195.734 48.4609 194.911 48.6953 194 48.6953C193.354 48.6953 192.805 48.5885 192.352 48.375C191.904 48.1615 191.536 47.8932 191.25 47.5703C190.964 47.2422 190.745 46.9115 190.594 46.5781H190.492V53H187.164ZM190.422 42.5C190.422 43.2135 190.521 43.8359 190.719 44.3672C190.917 44.8984 191.203 45.3125 191.578 45.6094C191.953 45.901 192.409 46.0469 192.945 46.0469C193.487 46.0469 193.945 45.8984 194.32 45.6016C194.695 45.2995 194.979 44.8828 195.172 44.3516C195.37 43.8151 195.469 43.1979 195.469 42.5C195.469 41.8073 195.372 41.1979 195.18 40.6719C194.987 40.1458 194.703 39.7344 194.328 39.4375C193.953 39.1406 193.492 38.9922 192.945 38.9922C192.404 38.9922 191.945 39.1354 191.57 39.4219C191.201 39.7083 190.917 40.1146 190.719 40.6406C190.521 41.1667 190.422 41.7865 190.422 42.5ZM206.24 48.5V32.5H209.623V45.7109H216.482V48.5H206.24ZM224.082 48.7344C222.868 48.7344 221.819 48.4766 220.934 47.9609C220.053 47.4401 219.374 46.7161 218.895 45.7891C218.415 44.8568 218.176 43.776 218.176 42.5469C218.176 41.3073 218.415 40.224 218.895 39.2969C219.374 38.3646 220.053 37.6406 220.934 37.125C221.819 36.6042 222.868 36.3438 224.082 36.3438C225.296 36.3438 226.342 36.6042 227.223 37.125C228.108 37.6406 228.79 38.3646 229.27 39.2969C229.749 40.224 229.988 41.3073 229.988 42.5469C229.988 43.776 229.749 44.8568 229.27 45.7891C228.79 46.7161 228.108 47.4401 227.223 47.9609C226.342 48.4766 225.296 48.7344 224.082 48.7344ZM224.098 46.1562C224.65 46.1562 225.111 46 225.48 45.6875C225.85 45.3698 226.129 44.9375 226.316 44.3906C226.509 43.8437 226.605 43.2214 226.605 42.5234C226.605 41.8255 226.509 41.2031 226.316 40.6562C226.129 40.1094 225.85 39.6771 225.48 39.3594C225.111 39.0417 224.65 38.8828 224.098 38.8828C223.54 38.8828 223.072 39.0417 222.691 39.3594C222.316 39.6771 222.033 40.1094 221.84 40.6562C221.652 41.2031 221.559 41.8255 221.559 42.5234C221.559 43.2214 221.652 43.8437 221.84 44.3906C222.033 44.9375 222.316 45.3698 222.691 45.6875C223.072 46 223.54 46.1562 224.098 46.1562ZM237.559 53.25C236.48 53.25 235.556 53.1016 234.785 52.8047C234.02 52.513 233.41 52.1146 232.957 51.6094C232.504 51.1042 232.21 50.5365 232.074 49.9062L235.152 49.4922C235.246 49.7318 235.395 49.9557 235.598 50.1641C235.801 50.3724 236.069 50.5391 236.402 50.6641C236.741 50.7943 237.152 50.8594 237.637 50.8594C238.361 50.8594 238.957 50.6823 239.426 50.3281C239.9 49.9792 240.137 49.3932 240.137 48.5703V46.375H239.996C239.85 46.7083 239.632 47.0234 239.34 47.3203C239.048 47.6172 238.673 47.8594 238.215 48.0469C237.757 48.2344 237.21 48.3281 236.574 48.3281C235.673 48.3281 234.853 48.1198 234.113 47.7031C233.379 47.2812 232.793 46.638 232.355 45.7734C231.923 44.9036 231.707 43.8047 231.707 42.4766C231.707 41.1172 231.928 39.9818 232.371 39.0703C232.814 38.1589 233.402 37.4766 234.137 37.0234C234.876 36.5703 235.686 36.3438 236.566 36.3438C237.238 36.3438 237.801 36.4583 238.254 36.6875C238.707 36.9115 239.072 37.1927 239.348 37.5312C239.629 37.8646 239.845 38.1927 239.996 38.5156H240.121V36.5H243.426V48.6172C243.426 49.638 243.176 50.4922 242.676 51.1797C242.176 51.8672 241.483 52.3828 240.598 52.7266C239.717 53.0755 238.704 53.25 237.559 53.25ZM237.629 45.8281C238.165 45.8281 238.618 45.6953 238.988 45.4297C239.363 45.1589 239.65 44.7734 239.848 44.2734C240.051 43.7682 240.152 43.1641 240.152 42.4609C240.152 41.7578 240.053 41.1484 239.855 40.6328C239.658 40.112 239.371 39.7083 238.996 39.4219C238.621 39.1354 238.165 38.9922 237.629 38.9922C237.082 38.9922 236.621 39.1406 236.246 39.4375C235.871 39.7292 235.587 40.1354 235.395 40.6562C235.202 41.1771 235.105 41.7786 235.105 42.4609C235.105 43.1536 235.202 43.7526 235.395 44.2578C235.592 44.7578 235.876 45.1458 236.246 45.4219C236.621 45.6927 237.082 45.8281 237.629 45.8281ZM246.074 48.5V36.5H249.402V48.5H246.074ZM247.746 34.9531C247.251 34.9531 246.827 34.7891 246.473 34.4609C246.124 34.1276 245.949 33.7292 245.949 33.2656C245.949 32.8073 246.124 32.4141 246.473 32.0859C246.827 31.7526 247.251 31.5859 247.746 31.5859C248.241 31.5859 248.663 31.7526 249.012 32.0859C249.366 32.4141 249.543 32.8073 249.543 33.2656C249.543 33.7292 249.366 34.1276 249.012 34.4609C248.663 34.7891 248.241 34.9531 247.746 34.9531ZM254.85 36.5L257.053 40.6953L259.311 36.5H262.725L259.248 42.5L262.818 48.5H259.42L257.053 44.3516L254.725 48.5H251.287L254.85 42.5L251.412 36.5H254.85Z" fill="black"/>
<defs>
<linearGradient id="paint0_linear_6_3727" x1="19.6584" y1="40.0008" x2="60.8219" y2="40.0008" gradientUnits="userSpaceOnUse">
<stop stop-color="white"/>
<stop offset="1" stop-color="#4D4D4D"/>
</linearGradient>
</defs>
</svg>
