<svg width="321" height="320" viewBox="0 0 321 320" fill="none" xmlns="http://www.w3.org/2000/svg">
<path d="M89.2658 145.648C91.5138 145.441 92.9783 146.04 94.5893 147.615L125.828 180.525C129.725 184.505 142.831 195.067 131.705 198.758C126.524 199.818 118.079 188.474 114.682 184.887L90.0523 158.879C87.7628 156.556 83.9733 154.061 84.9388 150.266L85.3408 148.984C86.0998 147.256 87.5813 146.321 89.2658 145.648Z" fill="#828282"/>
<path d="M229.907 145.814C232.495 145.46 235.296 146.449 236.391 149.01L236.55 149.4C238.016 153.336 233.677 156.362 231.41 158.79L194.545 196.983C193.673 197.797 192.743 198.371 191.607 198.738C187.353 199.948 183.564 195.037 185.363 191.172C186.033 189.73 187.356 188.539 188.459 187.426L221.926 152.571C224.31 150.022 226.46 146.923 229.907 145.814Z" fill="#828282"/>
<path d="M182.829 207.534L184.219 207.388C193.07 207.407 199.976 213.909 202.354 222.072C203.147 224.792 203.123 227.154 203.129 229.994L203.142 261.662C203.132 272.985 198.262 281.236 186.157 283.591C184.086 283.994 181.934 283.87 179.835 283.872L138.263 283.862L135.177 283.638C125.21 282.587 117.811 272.789 117.698 263.125L117.691 230.896C117.703 219.957 121.655 210.409 133.645 207.787C135.427 207.398 137.461 207.555 139.284 207.552L182.829 207.534Z" fill="black"/>
<path d="M171.44 230.482L172.732 230.491C176.653 230.782 178.711 234.169 178.241 237.882C177.907 240.521 175.622 242.1 173.734 243.684L168.873 247.805C164.127 251.994 159.461 258.858 152.729 257.913C149.205 257.418 147.62 254.914 145.631 252.325C143.307 249.938 139.538 248.289 139.419 244.464C139.317 241.184 142.277 237.123 145.815 237.239C149.53 237.359 152.447 240.911 154.808 243.423C156.1 242.739 157.289 241.424 158.374 240.448L163.756 235.734C166.073 233.717 168.379 231.252 171.44 230.482Z" fill="#828282"/>
<path d="M159.454 52.77C203.249 50.9585 240.385 85.1045 246.295 127.744C246.693 130.617 247.324 134.499 246.802 137.354L246.758 137.578C246.266 140.273 244.216 142.477 241.385 142.66C236.593 142.969 235.79 138.001 234.127 134.62C229.733 125.692 219.323 125.855 213.347 132.882C211.2 135.406 210.528 138.765 209.249 141.748C207.067 146.838 202.986 150.955 199.693 155.32L185.198 174.697C179.265 182.429 171.384 197.363 160.979 198.269C154.457 198.408 151.068 194.628 147.116 189.932C141.465 183.218 136.739 175.792 131.519 168.751L119.186 152.051C115.438 146.857 112.729 143.856 110.972 137.656C107.664 125.988 92.2103 123.882 87.2698 134.285C86.1098 136.727 85.9008 139.615 83.6703 141.391C80.7153 143.744 77.1178 142.955 74.9428 139.949C73.6768 138.2 73.8328 133.917 74.2313 131.82L75.1678 125.234C81.7338 84.5485 117.914 52.964 159.454 52.77Z" fill="#828282"/>
<path d="M139.616 126.63L141.427 126.707C148.186 127.263 153.567 134.524 154.888 140.788C155.212 142.328 155.153 143.924 155.156 145.489L155.014 174.165L154.302 181.73L149.071 173.697L130.285 148.171C129.055 146.407 125.835 142.371 125.663 140.278C125.069 133.059 132.698 127.007 139.616 126.63Z" fill="#FEFEFD"/>
<path d="M180.444 126.625C185.79 126.383 191.222 128.516 193.854 133.462L193.98 133.702C196.964 139.338 194.763 143.123 191.336 148.045L173.182 172.04L169.008 177.491C168.17 178.606 167.43 179.879 166.393 180.82L166.267 180.01C165.953 177.496 166.14 174.755 166.137 172.213L166.12 146.412C166.12 144.545 165.925 142.464 166.255 140.634C167.566 133.37 172.967 127.452 180.444 126.625Z" fill="#FEFEFD"/>
</svg>
