<svg width="100" height="100" viewBox="0 0 100 100" fill="none" xmlns="http://www.w3.org/2000/svg">
<path d="M22.3453 30.4804C21.7569 29.0409 23.6336 28.3313 24.6089 27.7321L35.8273 21.411C40.1011 19.026 41.775 18.7482 46.3864 21.2404L55.9517 26.6162C57.087 27.246 58.2258 27.8253 59.3187 28.5306C60.1133 29.0432 60.7317 29.3338 60.69 30.3774C60.1253 30.9573 59.3398 31.3892 58.657 31.8206L48.6094 37.724C42.4075 41.274 41.3761 42.3879 35.1686 38.6646L26.8456 33.726C25.3917 32.8557 23.8278 31.9513 22.607 30.7723L22.3453 30.4804Z" fill="black"/>
<path d="M65.0158 49.0522C65.9302 49.0094 66.8758 48.9758 67.7874 49.046C74.1038 49.5315 79.8477 54.3896 81.6152 60.4236C81.8819 61.3341 82.0185 62.2268 82.1897 63.1546L82.218 63.3301C82.6918 67.3918 81.5029 71.8451 78.904 75.0001C75.8546 78.7016 72.2802 80.499 67.4519 80.951C66.4452 80.9777 65.416 81.0133 64.4147 80.901C52.5461 79.569 45.7816 64.5952 53.7615 55.0033C56.6161 51.5719 60.5968 49.458 65.0158 49.0522ZM71.0227 58.5538C70.2012 58.7483 69.8652 59.2979 69.406 59.9693L65.5504 66.1493C65.1427 66.8063 64.7582 67.538 64.269 68.1369L61.6126 65.3757C60.8224 64.5418 60.0358 63.434 58.7576 63.4869L58.4701 63.5211C57.3086 63.6974 56.5743 64.9386 56.8071 66.0538C56.9385 66.6835 57.5291 67.2241 57.9485 67.6758L59.1391 68.9594L61.7276 71.6374C62.8236 72.7307 64.4933 74.1322 66.0279 72.7176C66.3813 72.3916 66.6315 71.9744 66.8872 71.5722L69.7118 67.1413C70.8672 65.3497 72.1754 63.6119 73.2001 61.7413C74.0379 60.2116 73.3535 58.5621 71.4458 58.5413L71.0227 58.5538Z" fill="black"/>
<path d="M60.6899 30.3774C60.7655 30.6349 60.9077 30.6231 61.1191 30.7757C62.8244 32.0078 62.7872 34.4015 62.7896 36.2882L62.7604 46.7621L62.2351 46.8684C61.5474 46.974 60.8277 47.2395 60.1713 47.4687C53.7519 49.7096 49.1249 55.2153 47.9499 61.9048C47.8035 62.7376 47.7671 63.8176 47.2772 64.5253C46.1254 66.1892 43.7218 66.0771 41.9438 66.0868C36.8105 66.1146 36.5207 65.8346 32.3093 63.1015L23.3027 57.1012C20.7554 55.2671 20.2599 53.3142 20.2574 50.4012L20.1655 35.3712C20.1662 33.8392 20.3624 31.7815 21.7515 30.8409C21.9313 30.7192 22.2105 30.6468 22.3452 30.4804L22.6069 30.7723C23.8277 31.9513 25.3916 32.8557 26.8455 33.726L35.1685 38.6646C41.376 42.3879 42.4074 41.274 48.6093 37.724L58.6569 31.8206C59.3397 31.3892 60.1252 30.9573 60.6899 30.3774Z" fill="#B1C72C"/>
</svg>
