<svg width="200" height="200" viewBox="0 0 200 200" fill="none" xmlns="http://www.w3.org/2000/svg">
<path d="M115.041 70.4168C118.854 70.1368 122.774 70.3172 126.598 70.32L133.305 70.3272C144.696 70.3518 149.079 74.1259 153.068 84.4034L155.394 90.5597C157.06 95.1025 157.756 96.6631 161.856 99.4956L166.836 102.793C175.428 108.405 175.499 112.072 175.489 122.101L175.481 126.11C175.451 133.287 169.749 139.302 162.696 140.339C162.499 142.012 162.24 143.717 161.702 145.319C156.189 161.719 131.132 158.438 130.404 140.201C129.266 140.043 128.107 140.082 126.961 140.08L105.775 140.077C105.921 139.508 105.951 138.884 106.023 138.32L113.2 81.9534L115.041 70.4168ZM129.013 83.039C127.391 83.6159 125.738 84.8106 124.971 86.3953L124.848 86.6487C123.935 88.524 124.422 93.0815 124.421 95.2431L124.424 99.3847C124.438 106.459 128.383 105.919 134.329 105.927L145.221 105.951C150.522 105.13 149.821 101.325 148.48 97.4512L146.813 92.655C146.04 90.3553 145.5 87.7781 144.38 85.6259C142.534 82.0815 138.81 83.0018 135.456 82.9997C133.33 82.9984 131.125 82.8703 129.013 83.039Z" fill="black"/>
<path d="M46.0079 140.22L45.8544 140.212C43.7207 140.237 41.6888 140.085 39.7007 139.235L38.7722 138.827C26.6169 133.063 31.0501 119.214 32.6782 108.927L39.4944 61.0116C40.3413 56.3053 43.8713 52.0431 48.4379 50.5025L49.7248 50.1006C50.6891 49.84 51.6876 49.7341 52.6826 49.6919L92.9976 49.7128C96.4223 49.7147 99.8294 49.6306 103.237 50.0235C111.35 50.9585 116.274 58.6066 115.104 66.4475C114.914 67.7241 113.823 70.0106 115.042 70.4169L113.2 81.9535L106.023 138.32C105.951 138.884 105.921 139.508 105.775 140.057L79.4572 140.061L78.9682 143.18C76.1166 153.758 64.6772 159.436 54.8997 154.19C54.5597 154.008 54.1866 153.834 53.9044 153.567C53.566 153.509 52.8957 152.931 52.6072 152.708C48.4107 149.456 46.6582 145.346 46.0079 140.22Z" fill="#828282"/>
<path d="M61.6717 100.415L83.5504 100.419C86.1901 100.421 89.9451 99.9994 91.2598 102.976C91.5598 103.655 91.6383 104.636 91.3795 105.338L91.282 105.591C90.2926 108.101 88.2439 108.493 85.9029 108.496L82.1045 108.488L58.802 108.491C56.1208 108.493 52.5439 108.416 52.3876 104.688C52.2348 101.039 55.7504 100.443 58.6054 100.427L61.6717 100.415Z" fill="#FEFEFE"/>
<path d="M93.1244 83.4165L97.1803 83.3809C97.9119 83.374 98.8078 83.2865 99.5191 83.4693C101.817 84.0606 103.308 86.7197 102.594 89.0015L102.541 89.16C100.759 94.6847 94.39 91.74 90.1803 91.6259L63.2082 91.5987L58.3291 91.6009C57.465 91.6 56.5222 91.6775 55.6728 91.5153C52.1797 90.8478 50.9757 85.9175 54.3069 84.0868L54.541 83.9618C56.1494 82.999 58.7203 83.42 60.5166 83.42L93.1244 83.4165Z" fill="#FEFEFE"/>
<path d="M46.0078 140.22V139.494C46.0141 130.201 53.7362 122.215 63.1187 122.251C72.7662 122.288 79.5225 130.761 79.4628 140.055L78.9681 143.18C76.1166 153.758 64.6772 159.436 54.8997 154.19C54.5597 154.008 54.1866 153.834 53.9044 153.567C53.5659 153.509 52.8956 152.931 52.6072 152.708C48.4106 149.456 46.6581 145.346 46.0078 140.22Z" fill="black"/>
</svg>
