<svg width="100" height="100" viewBox="0 0 100 100" fill="none" xmlns="http://www.w3.org/2000/svg">
<path d="M35.9936 39.1882L36.0388 39.8145L46.4169 39.8243C47.1542 39.8256 47.9667 39.8026 48.6847 39.9875C52.6377 40.3431 56.0874 44.6826 56.4403 48.5125C56.5703 49.9235 56.5567 52.9001 56.4375 54.3034L56.3972 54.8354L56.2705 54.8095C55.9869 55.0771 56.0555 55.7887 56.0552 56.1357L56.0553 57.6368C56.0557 58.5095 56.1163 59.4368 56.0155 60.3025C55.421 65.4082 51.5888 68.034 46.7763 68.0534L36.7491 68.0737C36.005 68.1056 35.4668 68.8461 34.975 69.3421L32.4035 71.9832C30.6219 73.814 28.805 75.6806 26.0358 74.1945C23.2857 72.7185 24.201 69.6239 22.5202 69.1617L21.0867 68.732C20.0839 68.3832 19.1328 67.8739 18.2585 67.2751C14.7424 64.6751 14.4234 62.4567 14.4273 58.2667L14.4369 50.3735C14.4383 49.7214 14.3999 49.0325 14.501 48.3871C15.2634 43.5228 18.6052 40.2804 23.641 39.8512C24.7932 39.7529 26.0121 39.8273 27.1719 39.8271L34.7772 39.8278C35.823 39.8273 35.9749 40.1025 35.9936 39.1882Z" fill="#C2D83B"/>
<path d="M26.3582 51.9604C28.7235 51.8524 29.7113 54.981 27.1538 55.8616C24.4704 56.4288 23.8749 52.5269 26.3582 51.9604Z" fill="black"/>
<path d="M33.4322 52.0115C36.0206 51.7337 36.9012 54.9078 34.2294 55.8065C31.7897 56.4345 30.7139 52.8609 33.4322 52.0115Z" fill="black"/>
<path d="M40.9162 51.9629C43.3972 51.7943 44.1744 55.1433 41.4745 55.83C38.7509 56.0737 38.152 52.537 40.9162 51.9629Z" fill="black"/>
<path d="M18.2584 67.2752L17.9933 66.9194C17.9276 66.8636 17.8979 66.8205 17.8198 66.7742L18.0011 66.7839C18.8089 66.5606 18.4759 65.9875 18.3639 65.4455C18.6336 65.5844 19.2012 65.9586 19.5483 66.1625C20.5156 66.7306 21.5431 67.0722 22.6286 67.3342C24.1519 67.702 24.2519 67.4187 24.6098 69.0689C24.9969 70.8523 25.5428 72.4827 27.4445 72.9891L27.5647 73.0228C29.1167 73.3981 30.134 72.0513 31.0542 71.043L33.8487 68.0239C34.884 66.9764 35.1229 66.4405 36.6034 66.4034L44.7294 66.3853C45.7723 66.3858 46.8755 66.4517 47.9125 66.3422L48.71 66.2297C51.4975 65.6987 53.8342 63.5831 54.2558 60.7367C54.342 60.1548 54.2961 59.5205 54.2962 58.9327L54.3026 50.9628C54.3081 49.8169 54.4103 48.692 54.1906 47.5586L54.0512 47.0244C53.4409 45.1762 51.8867 43.6588 50.2442 42.6997L49.463 42.2603C49.2105 42.1016 48.8859 41.9608 48.6042 41.8669L48.5356 41.8455C48.449 41.8175 48.3187 41.812 48.2423 41.772L48.1695 41.7236C47.7828 41.7131 47.0972 41.4122 46.6712 41.3061L46.5823 41.2848C46.185 41.1745 45.7087 41.3088 45.3478 41.2002C45.2133 41.1597 45.2275 41.0163 45.0364 41.0327C44.7694 41.0556 44.4042 41.0806 44.1756 40.9219L44.1248 40.885C43.8561 40.6972 43.6231 40.5017 43.9295 40.2425L43.9239 40.0627C43.8331 40.0695 43.7162 40.0784 43.6284 40.0595L43.5467 40.0273C43.425 39.9925 43.3515 39.9934 43.2428 39.9186L43.28 39.8555L47.2025 40.0122C47.0787 40.0322 47.0165 40.0786 46.9512 40.1823C46.8633 40.3217 46.7108 40.2203 46.5675 40.3648L46.9208 40.4537C47.0253 40.5358 47.1256 40.5786 47.2606 40.5587L47.3333 40.5433C47.4276 40.5977 49.4575 40.7636 49.5805 40.7038L49.5709 40.5708L49.295 40.4103C49.2706 40.4223 48.1653 40.093 48.0359 40.0617L47.8219 40.1205C47.8928 39.8677 48.4415 40.0089 48.6847 39.9938C52.6376 40.3431 56.0873 44.6827 56.4403 48.5125C56.5703 49.9236 56.5567 52.9002 56.4375 54.3034L56.3972 54.8355L56.2705 54.8095C55.9869 55.0772 56.0555 55.7888 56.0551 56.1358L56.0553 57.6369C56.0556 58.5095 56.1162 59.4369 56.0154 60.3025C55.4209 65.4083 51.5887 68.0341 46.7762 68.0534L36.749 68.0737C36.005 68.1056 35.4667 68.8461 34.975 69.3422L32.4034 71.9833C30.6219 73.8141 28.805 75.6806 26.0358 74.1945C23.2856 72.7186 24.2009 69.6239 22.5201 69.1617L21.0867 68.732C20.0839 68.3833 19.1328 67.8739 18.2584 67.2752Z" fill="#C2D83B"/>
<path d="M35.9932 39.308L35.9984 34.3297C35.9993 33.3802 35.9099 32.3377 36.0945 31.4063C36.7352 28.1721 39.1052 25.8993 42.321 25.3465C43.1801 25.1986 44.1124 25.2519 44.9831 25.2518L77.3424 25.2452C77.8962 25.2421 78.4893 25.1899 79.0381 25.2543C82.3299 25.6399 84.9512 28.4224 85.4631 31.6333C85.6107 32.5601 85.5301 33.5858 85.5309 34.5263L85.5321 45.3168C85.5318 46.4222 85.6231 47.629 85.4338 48.7199C84.9107 51.7362 82.2762 54.3422 79.2229 54.7321C78.3423 54.8444 77.1724 54.5813 76.5593 55.3763C75.224 57.1077 77.0204 60.5821 73.6813 61.4788L73.5934 61.503C71.6027 62.0338 70.4076 60.826 69.1691 59.498L66.8988 57.0196C66.2738 56.3283 65.651 55.574 64.917 54.9952C64.3646 54.5597 63.1915 54.7982 62.5343 54.7982L57.9713 54.8076C57.4757 54.8141 56.8781 54.9315 56.3968 54.8257L56.4371 54.3035C56.5563 52.9002 56.5699 49.9237 56.4399 48.5126C56.087 44.6827 52.6373 40.3432 48.6843 39.9938C47.9663 39.8027 47.1538 39.8257 46.4165 39.8244L36.0384 39.8146L35.9932 39.308Z" fill="black"/>
<path d="M71.9597 40.5395C74.1757 40.3485 74.7209 43.3325 72.5437 43.8544C69.9803 43.9144 69.8117 41.0327 71.9597 40.5395Z" fill="#C2D83B"/>
<path d="M65.9327 43.4134C65.8801 43.5167 65.6438 43.6446 65.5429 43.6971C63.2862 44.8743 61.8126 41.4506 64.0785 40.5904C64.5776 40.401 65.1188 40.5001 65.5879 40.7162C66.314 41.2309 66.7696 42.4649 66.1285 43.2257L65.9327 43.4134Z" fill="#C2D83B"/>
</svg>
