<svg width="320" height="320" viewBox="0 0 320 320" fill="none" xmlns="http://www.w3.org/2000/svg">
<path d="M56.3494 174.283C57.8569 174.32 59.4284 174.304 60.8789 174.77C73.8099 178.922 72.6319 189.39 73.3989 200.423L74.7589 216.175C75.0884 219.766 75.3194 227.454 74.8469 230.921C73.7624 238.884 66.7914 244.632 58.9629 245.299C49.6338 245.584 41.889 240.846 40.2673 231.172L40.0839 229.444C39.6566 221.867 39.9463 214.142 39.9431 206.549L39.945 196.365C39.9475 193.482 39.8062 190.563 40.3978 187.725C41.9919 180.077 48.5617 174.655 56.3494 174.283Z" fill="black"/>
<path d="M164.558 155.733C150.487 150.552 141.116 136.344 139.484 121.719C137.432 103.327 160.673 70.0415 172.665 58.468C193.036 38.8086 208.137 56.5405 220.489 73.339L227.084 83.073C228.062 84.6365 229.117 86.2035 229.972 87.836C234.722 95.5775 239.253 104.754 240.482 113.828C243.499 136.106 225.276 158.801 202.526 158.784C199.411 158.782 196.516 158.369 193.672 157.011C187.875 154.244 191.257 154.974 185.669 157.479C179.464 160.259 171.706 158.568 165.576 156.154C165.312 156.05 164.755 155.918 164.558 155.733Z" fill="#828282"/>
<path d="M183.266 209.874L195.291 209.88C198.799 209.871 201.977 209.873 205.296 208.599C212.085 205.993 216.974 199.155 217.708 192.004L261.981 172.323C264.261 171.285 266.589 170.02 269.104 169.687C278.516 168.44 285.065 179.933 278.901 187.405C276.89 189.842 273.807 191.387 271.147 193.001L232.033 217.166L188.823 240.459C176.807 246.967 166.855 254.486 152.277 251.587C144.942 250.129 137.797 247.587 130.625 245.498L93.594 235.479C91.354 234.901 83.412 233.322 81.825 232.016C81.595 230.878 81.6935 229.604 81.689 228.442L81.0675 210.006C80.6795 204.903 79.743 197.698 80.377 192.631C81.491 183.731 93.13 178.423 100.539 176.095C115.376 171.433 126.786 173.028 141.391 175.588L168.594 180.311C173.417 180.955 176.054 181.112 181.071 181.114L195.068 181.122C197.593 181.124 200.234 180.96 202.733 181.303C208.09 182.037 211.008 188.152 210.215 193.046L210.163 193.359C209.413 198.029 205.247 201.812 200.781 202.969C198.379 203.591 195.367 203.297 192.894 203.303L180.559 203.309L179.917 203.847C180.222 204.075 180.474 204.338 180.781 204.566L182.031 205.535C182.417 205.853 183.047 206.451 183.256 206.9L183.466 207.266C183.696 207.714 183.628 209.421 183.266 209.874Z" fill="black"/>
<path d="M183.266 209.874L148.898 209.893C147.433 209.893 145.888 209.989 144.432 209.848C141.07 209.525 141.527 203.905 144.703 203.358C145.739 203.18 146.96 203.296 148.015 203.294L180.559 203.312L179.917 203.847C180.222 204.075 180.474 204.338 180.781 204.566L182.031 205.535C182.417 205.853 183.047 206.451 183.256 206.9L183.466 207.266C183.696 207.714 183.627 209.421 183.266 209.874Z" fill="#828282"/>
</svg>
