<svg width="200" height="200" viewBox="0 0 200 200" fill="none" xmlns="http://www.w3.org/2000/svg">
<path d="M71.7745 19.3942C84.0126 18.3444 91.9838 32.9447 83.9976 42.7019C81.4404 45.8263 77.5882 47.5038 73.6404 47.8875C61.6082 48.7109 53.5795 34.6197 61.2976 24.9957C63.9335 21.709 67.6135 19.8332 71.7745 19.3942Z" fill="black"/>
<path d="M55.2622 88.1903C54.2025 89.776 53.5175 91.6088 52.7556 93.3241L48.9585 101.677C47.311 105.156 45.2194 109.059 40.645 108.145L40.5275 108.121C38.2497 107.688 36.046 105.78 35.5456 103.482L35.41 102.743C35.1985 100.651 35.9325 98.99 36.6535 97.0888L38.3578 92.6397C40.6631 86.5944 42.676 80.3025 45.6653 74.5519C47.5225 70.9791 49.9006 67.5938 52.1047 64.2241C56.0066 58.2597 58.9516 52.4513 66.9535 51.5981C70.6538 51.2035 73.8372 52.9856 76.2894 55.6441C77.0138 56.4294 77.5572 57.4122 78.3985 58.0766L78.4963 58.1506C70.7063 59.8403 70.8766 59.8888 64.6828 65.3485L60.4022 69.0466C55.9935 72.8613 55.3613 73.8153 55.3638 79.2678L55.3788 85.3281C55.3806 86.2081 55.5119 87.3481 55.2622 88.1903Z" fill="black"/>
<path d="M81.2136 95.0353L79.6839 93.3382C75.7433 88.4991 74.4686 82.1582 72.8133 76.2878L71.547 71.7528C71.307 70.7588 71.0595 69.7807 71.1755 68.75C71.5673 65.2707 76.3283 62.3688 79.5892 62.7557L79.7851 62.7797C80.4536 62.8585 81.087 63.0563 81.732 63.2419C84.0814 64.0441 85.3333 66.4069 86.3683 68.5107L92.6761 81.7341C93.4208 83.1025 93.7073 83.7022 95.217 84.2216L110.673 88.8463C114.324 89.986 115.665 90.7025 117.41 94.2522L117.452 94.3372C119.095 99.8894 114.727 104.215 109.177 104.119C105.357 103.353 101.62 102.143 97.8833 101.043L89.4039 98.4932C86.6364 97.61 83.6598 96.6285 81.2136 95.0353Z" fill="black"/>
<path d="M55.589 107.713L64.4712 107.727C70.7821 107.731 74.7471 107.447 79.6946 112.398L80.3509 113.096C84.7256 118.31 91.374 123.772 91.8662 131.103C92.0371 133.647 91.5381 136.266 91.5059 138.814L91.4675 162.384C91.4334 165.444 89.6246 168.21 86.3984 168.569C80.7184 169.202 79.9074 165.064 79.4737 160.555L76.424 135.513C76.1606 135.68 75.0753 137.983 74.8581 138.392L61.1824 165.131C58.24 170.403 51.0656 169.483 49.9103 164.416L49.8756 164.258C49.2568 161.495 50.9409 158.46 51.8493 155.943L57.7734 139.354C58.7037 136.688 59.6809 134.145 59.2893 131.299C58.4362 125.097 51.6362 117.573 52.5706 112.041C52.8656 110.295 53.8259 108.36 55.589 107.713Z" fill="black"/>
<path d="M117.452 94.3372C119.428 94.005 123.402 93.9153 125.635 93.8753L132.146 93.785L145.918 93.8478L155.109 93.8563C156.677 93.8516 158.402 93.7088 159.951 93.9432C164.289 94.5994 167.885 98.5775 168.153 102.96C168.292 105.246 168.198 107.582 168.202 109.874L168.211 132.361C168.21 134.078 168.317 135.871 168.147 137.576C167.761 141.446 164.854 144.884 161.118 145.911C159.275 146.417 157.373 146.359 155.482 146.363L123.599 146.377C117.889 146.375 111.274 146.515 109.512 139.287L109.334 138.341C108.987 136.27 109.082 134.039 109.08 131.943L109.082 111.269C109.082 108.909 109.009 106.519 109.152 104.164L109.083 104.119C114.727 104.215 119.095 99.8894 117.452 94.3372Z" fill="#828282"/>
</svg>
