<svg width="100" height="100" viewBox="0 0 100 100" fill="none" xmlns="http://www.w3.org/2000/svg">
<path d="M62.239 55.424L64.5221 78.5157C64.5584 78.9527 64.6259 79.3964 64.6376 79.8341C64.6803 81.4463 60.4306 80.9175 59.5537 80.6785C58.5581 80.4069 57.6192 80.0013 56.6651 79.616L43.5481 74.3757C41.7018 73.6288 38.6056 72.7294 37.099 71.5041C36.9965 71.3791 36.9026 71.2693 36.8611 71.1104L36.8467 71.0525C36.5917 70.1341 36.8245 68.8941 36.9287 67.9688L38.2911 55.8171C38.455 55.9425 38.6475 56.3557 38.7773 56.5418L44.4421 63.7207C45.125 64.5207 45.8071 65.3771 46.62 66.0516L47.3764 66.6199C48.5145 67.3469 50.0061 67.5788 51.3159 67.2744C53.487 66.77 55.0211 64.4939 56.3765 62.9068L59.6737 58.9241C60.5771 57.7916 61.4704 56.655 62.239 55.424Z" fill="#B1C72C"/>
<path d="M29.0203 44.1608C31.3061 44.0458 31.6819 45.0839 32.7525 46.86L34.7791 50.3304C35.1452 50.9787 35.6636 51.7206 35.837 52.4506L35.8513 52.5147C35.9953 53.1215 35.8627 53.9186 35.815 54.5362L34.5103 68.3926C34.0223 72.0231 33.6128 71.9272 30.6275 73.387L26.0806 75.6103C24.4567 76.3972 22.8669 77.3579 21.1789 77.9886C16.7638 79.4206 13.4864 75.4622 14.9202 71.1072C15.4452 69.5125 16.2081 67.9617 16.8458 66.4062L19.4333 59.9656L23.8269 49.549C24.9227 46.8581 25.4852 44.4851 29.0203 44.1608Z" fill="#B1C72C"/>
<path d="M71.2046 43.9669C74.0545 43.7759 75.0968 46.2745 76.1328 48.3887L84.4381 64.2475C86.3123 68.184 84.7964 71.4079 80.9704 73.2006L75.2236 75.8754L68.6979 78.8504C68.1421 79.0734 67.6121 79.305 67.0209 79.4209L64.7118 54.4817C64.5331 53.2169 64.5312 51.8869 65.1667 50.7514L66.0531 49.2136C67.4753 46.6795 68.0125 44.2897 71.2046 43.9669Z" fill="#B1C72C"/>
<path d="M49.6617 14.1457C56.5252 13.6278 63.4777 18.175 66.6252 24.0956C70.4914 31.3681 68.9508 37.3766 65.477 44.4736C62.4916 50.5731 58.6436 56.0956 54.2461 61.2583L52.7914 62.9792C52.358 63.4848 51.875 64.0783 51.2721 64.385L51.1964 64.422C50.952 64.5431 50.696 64.5912 50.4311 64.647C49.45 64.662 48.9033 64.4842 48.1595 63.775C46.8178 62.4959 45.6528 60.972 44.4899 59.5311L38.353 50.9992C35.1191 45.9566 30.6306 37.9047 31.1566 31.6233C31.9486 22.1642 40.1421 14.3182 49.6617 14.1457ZM49.5094 23.263C40.7778 24.0752 37.5125 34.6289 44.1863 40.0447C45.9761 41.497 48.2814 42.1814 50.5739 42.0525C54.9974 41.8341 58.8449 38.4095 59.4363 33.9927C60.2122 28.197 55.5933 22.8884 49.5896 23.2563L49.5094 23.263Z" fill="black"/>
<path d="M55.6203 32.5719C55.9067 32.4314 56.6772 31.7955 56.9317 32.1546C56.9345 32.6358 56.9309 33.098 56.8608 33.576C56.5011 35.5341 55.5986 37.1994 53.93 38.3447C50.9901 40.3625 46.459 39.5747 44.4881 36.5674L44.4306 36.4707C44.4489 36.1475 44.0764 35.6983 43.9487 35.3861L44.4809 35.1496C45.0861 34.8497 45.7787 34.8593 46.4451 34.4849L49.469 34.3988L50.7562 34.263C51.5339 34.1921 52.378 34.1229 53.1192 33.8697C53.8292 33.6271 54.4031 33.1346 55.0833 32.8655L55.1706 32.8324C55.3084 32.7257 55.4661 32.6518 55.6203 32.5719Z" fill="#C2D83B"/>
<path d="M43.6686 30.6675C43.6992 30.4747 43.7906 30.2797 43.8647 30.0998C46.2156 24.3869 54.0029 24.2808 56.315 29.9409C56.6256 30.6591 56.85 31.3739 56.9317 32.1545C56.6772 31.7955 55.9067 32.4314 55.6203 32.5719C55.4661 32.6517 55.3084 32.7256 55.1706 32.8323L55.0833 32.8655C54.4031 33.1345 53.8292 33.627 53.1192 33.8697C52.3779 34.1228 51.5339 34.192 50.7562 34.263L49.469 34.3987L46.4451 34.4848C45.7787 34.8592 45.0861 34.8497 44.4809 35.1495L43.9487 35.3861C44.0764 35.6983 44.4489 36.1475 44.4306 36.4706C43.6381 35.4164 43.2908 34.0439 43.3151 32.743C43.1501 32.1941 43.4879 31.1761 43.6686 30.6675Z" fill="#E0FF23"/>
</svg>
