<svg width="200" height="200" viewBox="0 0 200 200" fill="none" xmlns="http://www.w3.org/2000/svg">
<path d="M89.7843 136.698L94.7752 151.586C96.7355 157.924 96.5265 158.015 91.6371 162.842C90.9205 163.549 90.2502 164.321 89.453 164.939L89.3383 165.029C86.8955 166.888 83.943 163.395 82.474 161.881L71.9255 151.287C70.2246 149.655 70.6737 149.691 70.4624 147.473C70.6987 146.992 80.4346 141.446 81.3549 140.983C84.144 139.581 87.2043 138.455 89.7843 136.698Z" fill="#828282"/>
<path d="M53.7571 132.257C52.7687 131.579 51.9053 130.738 51.0381 129.914L40.5368 119.595C39.504 118.55 38.3543 117.5 37.4615 116.334L37.0606 115.777C35.9206 113.749 38.0484 112.296 39.2753 111.079L42.6709 107.699C45.9565 104.45 46.719 104.591 51.1206 106.429L64.3556 112.087C66.1274 112.824 67.8718 113.698 69.6728 114.354L58.0843 126.295C56.4434 128.162 54.7521 129.945 53.7571 132.257Z" fill="#828282"/>
<path d="M112.468 114.849C112.889 114.315 113.475 113.82 113.958 113.335L130.253 97.7019C132.512 95.4697 134.772 93.1513 137.221 91.1272C137.945 92.8841 138.285 94.7275 138.747 96.5622L149.542 142.108C150.027 144.249 150.612 146.385 150.915 148.562C151.625 153.659 148.765 155.427 145.43 158.639C142.334 161.621 139.311 165.738 134.375 164.485L134.209 164.445C132.436 164.002 130.93 162.921 129.887 161.426L129.785 161.283C129.29 160.569 128.935 159.78 128.618 158.974L113.571 118.08C113.218 117.152 112.473 115.818 112.468 114.849Z" fill="#828282"/>
<path d="M43.1321 53.7266C46.9143 50.0184 52.2049 52.1622 56.6224 53.0819L109.198 64.9056C111.811 65.5456 114.523 65.9856 117.088 66.7863L88.2077 95.6719L44.2262 75.8756C41.4646 74.8641 36.8543 72.9947 35.2762 70.6856C33.3324 67.8409 33.643 63.9853 35.4305 61.145C36.6671 59.1806 41.0787 55.105 43.1321 53.7266Z" fill="#828282"/>
<path d="M117.088 66.7862L133.669 50.2209C139.622 44.2415 142.432 43.4528 150.395 40.3906L153.764 39.1819C155.363 38.6122 156.947 38.0306 158.665 38.0019C163.886 37.9144 168.138 42.924 168.171 47.9541C168.182 49.68 167.828 51.3369 167.469 53.0147L165.951 59.2947C165.13 62.4034 164.67 64.0794 162.334 66.4191L137.221 91.1272C134.771 93.1512 132.512 95.4697 130.253 97.7019L113.958 113.335C113.475 113.82 112.889 114.315 112.468 114.849L91.8009 134.606C91.1934 135.202 90.1452 135.943 89.7843 136.698C87.2043 138.455 84.144 139.581 81.3549 140.983C80.4346 141.446 70.6987 146.992 70.4624 147.473L69.1287 148.155C66.5449 149.263 60.2584 149.213 57.8296 148.178C51.6415 145.542 51.3524 137.632 53.7571 132.257C54.7521 129.945 56.4434 128.162 58.0843 126.295L69.6727 114.354L88.2074 95.6719L117.088 66.7862ZM141.919 52.4428C137.155 54.3919 141.567 58.0156 143.566 60.1025C145.247 61.8575 147.517 65.0925 150.285 64.7309C154.264 63.0991 150.656 59.8475 149.039 58.0922L146 54.93C144.967 53.9078 143.51 52.3356 141.919 52.4428Z" fill="black"/>
</svg>
