<svg width="100" height="100" viewBox="0 0 100 100" fill="none" xmlns="http://www.w3.org/2000/svg">
<path d="M71.4412 64.3769C74.4252 64.2053 75.9971 66.4364 77.9001 68.352L82.7352 73.1881C83.8954 74.3545 85.2546 75.4248 86.2662 76.7217C88.951 80.1639 85.9737 85.4216 81.8846 86.2405L80.9255 86.3602C78.7062 86.4481 77.2152 85.313 75.7641 83.8111L69.1169 77.0658C67.7166 75.6381 65.5873 74.1542 65.1833 72.0616L65.0796 71.2917C64.8798 67.8395 68.119 64.5464 71.4412 64.3769Z" fill="black"/>
<path d="M40.9035 18.7375C52.2385 18.8007 62.0657 27.0277 63.3574 38.4524C63.9957 44.0971 62.6082 50.1402 59.0262 54.6171C59.4644 54.901 59.7418 55.2771 60.0847 55.6627L63.5202 59.1361C63.991 59.5955 64.6054 60.0568 64.9615 60.6091L65.0061 60.681C66.5201 63.068 64.5007 65.8527 61.3727 64.5386C59.5544 63.7749 58.2646 62.0802 56.8935 60.7207C56.2269 60.0597 55.4813 59.4597 54.8621 58.7558L51.7346 60.7489C49.6921 61.785 47.5458 62.6088 45.278 62.9844C32.9085 65.0325 21.3596 56.8469 19.379 44.2788L19.2274 43.1199C19.1049 42.4093 19.144 41.6536 19.1446 40.934C19.1565 28.9 28.878 18.8622 40.9035 18.7375Z" fill="black"/>
<path d="M40.7576 25.2376C41.5084 25.2008 42.3112 25.1967 43.0567 25.2826C50.2987 26.1178 56.6137 32.6147 57.067 39.9454C57.6307 49.0648 51.2679 56.6572 42.0507 57.0851L41.2296 57.084C37.084 57.0284 32.6981 54.9269 29.8193 51.9687C22.2049 44.145 25.3893 30.2119 35.4481 26.2565C37.0264 25.6359 39.0565 25.2037 40.7576 25.2376Z" fill="#B1C72C"/>
</svg>
