<svg width="321" height="320" viewBox="0 0 321 320" fill="none" xmlns="http://www.w3.org/2000/svg">
<path d="M189.927 120.447C194.208 114.055 201.78 113.578 208.732 113.575L217.767 113.72C230.503 115.331 239.353 123.014 247.716 131.893L255.12 139.577C261.06 145.645 267.223 151.561 272.5 158.232C280.37 168.18 281.146 175.436 281.143 187.335C281.141 195.773 281.929 203.739 274.439 209.536C270.7 212.43 266.213 212.929 261.637 212.865C261.35 212.861 261.128 212.724 261.083 213.018C255.093 252.882 208.666 247.291 205.009 213.488L170.133 213.296L165.556 213.298L164.573 213.066C164.949 212.757 165.599 212.628 166.059 212.47L169.319 211.344C169.546 211.042 171.298 210.467 171.756 210.247C181.831 205.409 188.567 194.702 189.798 183.751C190.184 180.321 189.954 176.672 189.955 173.212L189.949 158.193L189.927 120.447ZM225.813 131.766C217.756 132.959 218.805 139.203 218.8 145.361C218.792 153.324 218.224 160.417 227.773 163.342C229.736 163.944 232.574 163.615 234.647 163.62L246.438 163.695C250.493 163.382 254.371 159.849 253.193 155.469L253.134 155.242C252.085 151.494 242.719 143.729 239.772 140.874C235.691 136.919 232.181 131.444 225.813 131.766Z" fill="black"/>
<path d="M60.9221 109.308L66.0791 109.253C67.9371 101.633 73.1071 94.739 79.8011 90.662C88.8196 85.17 98.7941 85.6225 108.946 85.617L149.74 85.589C155.453 85.5785 161.529 85.076 167.115 86.4575C180.729 89.825 189.513 100.544 189.574 114.495C189.583 116.382 189.401 118.624 189.929 120.447L189.954 158.193L189.955 173.212C189.954 176.672 190.184 180.321 189.798 183.751C188.567 194.703 181.831 205.409 171.756 210.247C171.298 210.467 169.546 211.042 169.319 211.344L166.059 212.47C165.599 212.628 164.949 212.757 164.573 213.066L165.556 213.284L146.438 212.941C146.451 214.841 146.448 216.868 146.069 218.883C142.252 239.173 116.03 248.518 100.992 233.209C97.2276 229.378 93.0351 222.454 92.7921 216.833L92.5221 214.891L92.4221 214.266C92.2346 213.254 90.9121 213.769 90.1196 213.738C84.5441 213.521 78.5246 211.435 73.9356 208.359C62.8596 200.934 60.6586 188.697 60.6696 176.245L60.6801 158.917C60.6876 156.854 60.6576 154.65 61.0566 152.624L61.3121 150.996C61.3826 150.47 61.5001 150.233 61.8721 149.855L61.9791 149.749C60.8031 149.56 59.5481 149.697 58.3471 149.564L58.1501 149.54L53.0886 149.5C52.0676 149.489 50.9201 149.542 49.9298 149.298L49.7291 149.245C43.8796 147.729 44.6595 139.418 50.8881 138.41C54.1671 137.902 57.6036 138.629 60.8226 138.155C60.4851 133.356 61.5976 125.743 62.6181 121.172C63.1286 121.044 63.5441 120.804 63.5766 120.234C62.9461 120.224 62.2816 120.249 61.6651 120.106L61.3576 120.03L45.7569 119.938C44.7243 119.926 43.6993 119.972 42.7479 119.504L42.5416 119.4C38.3937 117.435 38.2168 110.825 42.7501 109.37L42.9322 109.316C44.3351 108.889 46.573 109.26 48.0639 109.267L60.9221 109.308Z" fill="#828282"/>
<path d="M61.3576 119.966L45.7569 119.938C44.7243 119.927 43.6993 119.972 42.7479 119.504L42.5416 119.4C38.3937 117.435 38.2168 110.826 42.7501 109.371L42.9322 109.317C44.3351 108.889 46.573 109.26 48.0639 109.267L60.9221 109.308L78.6261 109.337C79.7861 109.342 81.0056 109.315 82.1346 109.606L82.3356 109.655C86.6986 110.8 85.9451 119.106 80.0361 119.834C75.7691 120.36 65.8026 120.208 61.3576 119.966Z" fill="black"/>
<path d="M50.8882 138.409L133.066 138.172C135.943 138.173 140.459 137.444 143.054 139.007L143.272 139.135C147.415 141.653 147.126 147.797 142.386 149.23L142.138 149.307C141.033 149.627 139.795 149.524 138.652 149.518L118.215 149.488L58.1502 149.513L53.0887 149.5C52.0677 149.489 50.9202 149.542 49.9299 149.298L49.7292 149.245C43.8796 147.729 44.6596 139.418 50.8882 138.409Z" fill="black"/>
<path d="M112.754 187.473C128.23 183.254 144.683 194.446 146.197 210.195C146.277 211.029 146.25 211.992 146.438 212.8C146.451 214.842 146.448 216.867 146.069 218.883C142.252 239.172 116.03 248.518 100.992 233.209C97.2276 229.377 93.0351 222.454 92.7921 216.833L92.5221 214.891C92.4831 202.827 100.779 190.533 112.754 187.473Z" fill="black"/>
</svg>
